<svg role="img" viewBox="0 0 24 24" xmlns="http://www.w3.org/2000/svg" fill="#FFFFFF">
    <title>Dumbbell</title>
    <path d="M22.28 2.344H1.72C.77 2.344 0 3.114 0 4.064v1.718c0 .95.77 1.72 1.72 1.72h1.718v10.196H1.72c-.95 0-1.72.77-1.72 1.72v1.718c0 .95.77 1.72 1.72 1.72h20.56c.95 0 1.72-.77 1.72-1.72v-1.718c0-.95-.77-1.72-1.72-1.72h-1.718V7.502h1.718c.95 0 1.72-.77 1.72-1.72V4.064c0-.95-.77-1.72-1.72-1.72zM8.598 17.656H5.15V6.344h3.448v11.312zm5.646-11.312h3.448v11.312h-3.448V6.344z"/>
</svg>
